# File created by Blade
# Date/Time:  Thu Jan 22 16:52:56 2015
# Frame Rate: 120.000 fps
#------------------------------------------------------
:FULLY-SPECIFIED
:DEGREES
2561
root -0.563781 37.486178 0.685594 -3.418687 -0.847997 4.381280
RightUpLeg 13.555452 -1.378799 -2.734779
RightLeg -6.725105 -0.000000 0.000000
RightFoot -11.404563 -15.716231 17.299304
RightToeBase 11.619210 -0.000000 -0.000000
LeftUpLeg 9.057817 1.904351 0.448735
LeftLeg 0.598842 -0.000000 -0.000000
LeftFoot -8.243117 14.226173 -22.316125
LeftToeBase 7.978208 -0.000000 -0.000000
Spine 9.500785 11.077328 -2.426710
RightShoulder -8.242287 -21.227763 -24.732483
RightArm 6.361687 23.159930 28.432963
RightForeArm 20.450604 0.000000 15.461279
RightHand 2.672297 -0.000000 -2.302436
RightHandThumb1 -24.326973 -0.000000 -32.862282
LeftShoulder 11.739820 10.894778 40.868337
LeftArm 2.660082 -43.535322 -50.625059
LeftForeArm 32.035445 -0.000000 23.311529
LeftHand -15.484653 -0.000000 -2.155784
LeftHandThumb1 -26.253704 0.000000 33.147579
Head -8.292138 1.111667 8.155738
2562
root -0.552531 37.504151 0.698318 -3.240768 -0.587377 4.435593
RightUpLeg 13.358344 -1.487818 -2.786176
RightLeg -6.581142 -0.000000 0.000000
RightFoot -11.481613 -15.825153 17.438969
RightToeBase 11.624591 -0.000000 -0.000000
LeftUpLeg 9.040464 2.096169 0.465771
LeftLeg 0.258842 -0.000000 -0.000000
LeftFoot -7.753779 13.767535 -22.397720
LeftToeBase 8.007780 -0.000000 -0.000000
Spine 9.098116 10.837102 -2.680220
RightShoulder -8.163969 -21.150105 -24.871558
RightArm 6.200681 23.253153 28.200728
RightForeArm 20.344544 -0.000000 15.196508
RightHand 2.684037 -0.000000 -1.905302
RightHandThumb1 -24.326973 -0.000000 -32.862282
LeftShoulder 11.749215 10.822872 41.047079
LeftArm 2.674336 -43.621651 -50.215548
LeftForeArm 32.234840 -0.000000 22.679280
LeftHand -15.445588 0.000000 -2.092471
LeftHandThumb1 -26.253704 0.000000 33.147579
Head -8.283510 1.019132 8.317673
2563
root -0.540100 37.517480 0.703421 -2.975888 -0.320693 4.466556
RightUpLeg 13.089358 -1.501144 -2.794681
RightLeg -6.485829 -0.000000 0.000000
RightFoot -11.503487 -16.048097 17.460847
RightToeBase 11.547757 -0.000000 -0.000000
LeftUpLeg 8.905184 2.224227 0.494439
LeftLeg -0.036391 -0.000000 0.000000
LeftFoot -7.328107 13.336950 -22.492238
LeftToeBase 8.060356 -0.000000 -0.000000
Spine 8.590529 10.633142 -2.914735
RightShoulder -8.143037 -21.069536 -24.970595
RightArm 6.065533 23.362360 27.944855
RightForeArm 20.023909 0.000000 14.870149
RightHand 2.644640 -0.000000 -1.340433
RightHandThumb1 -24.326973 -0.000000 -32.862282
LeftShoulder 11.885827 10.764912 41.266943
LeftArm 2.611312 -43.815803 -49.827095
LeftForeArm 32.552076 0.000000 22.123045
LeftHand -15.285921 -0.000000 -2.027538
LeftHandThumb1 -26.253704 0.000000 33.147579
Head -8.241181 0.826091 8.463806
2564
root -0.524845 37.524784 0.708081 -2.701434 -0.035301 4.470279
RightUpLeg 12.837033 -1.518616 -2.780758
RightLeg -6.430226 -0.000000 0.000000
RightFoot -11.546391 -16.280231 17.504612
RightToeBase 11.515401 -0.000000 -0.000000
LeftUpLeg 8.721625 2.240545 0.522350
LeftLeg -0.259691 -0.000000 0.000000
LeftFoot -7.059940 13.001902 -22.623347
LeftToeBase 8.206407 -0.000000 -0.000000
Spine 8.068214 10.383406 -3.078740
RightShoulder -8.086806 -20.930076 -25.154466
RightArm 5.899558 23.390241 27.705284
RightForeArm 19.529051 -0.000000 14.561576
RightHand 2.538198 0.000000 -0.675667
RightHandThumb1 -24.326973 -0.000000 -32.862282
LeftShoulder 12.027883 10.746010 41.438675
LeftArm 2.545448 -43.990232 -49.426575
LeftForeArm 32.956342 -0.000000 21.579466
LeftHand -15.295980 -0.000000 -2.151171
LeftHandThumb1 -26.253704 0.000000 33.147579
Head -8.170279 0.688371 8.510046
